<mxfile host="app.diagrams.net" agent="Mozilla/5.0 (Windows NT 10.0; Win64; x64) AppleWebKit/537.36 (KHTML, like Gecko) Chrome/135.0.0.0 Safari/537.36" version="26.2.13">
  <diagram name="Page-1" id="c7-hRY8DfMiNaXvnUUdZ">
    <mxGraphModel dx="1748" dy="946" grid="1" gridSize="10" guides="1" tooltips="1" connect="1" arrows="1" fold="1" page="1" pageScale="1" pageWidth="1100" pageHeight="850" math="0" shadow="0">
      <root>
        <mxCell id="0" />
        <mxCell id="1" parent="0" />
        <mxCell id="i3L0F_zGx0VAiGbkec1p-10" style="edgeStyle=orthogonalEdgeStyle;rounded=0;orthogonalLoop=1;jettySize=auto;html=1;entryX=0.5;entryY=0;entryDx=0;entryDy=0;" edge="1" parent="1" source="i3L0F_zGx0VAiGbkec1p-2" target="i3L0F_zGx0VAiGbkec1p-9">
          <mxGeometry relative="1" as="geometry" />
        </mxCell>
        <mxCell id="i3L0F_zGx0VAiGbkec1p-2" value="" style="ellipse;whiteSpace=wrap;html=1;aspect=fixed;" vertex="1" parent="1">
          <mxGeometry x="490" y="13" width="20" height="20" as="geometry" />
        </mxCell>
        <mxCell id="i3L0F_zGx0VAiGbkec1p-13" style="edgeStyle=orthogonalEdgeStyle;rounded=0;orthogonalLoop=1;jettySize=auto;html=1;entryX=0.5;entryY=0;entryDx=0;entryDy=0;" edge="1" parent="1" source="i3L0F_zGx0VAiGbkec1p-9" target="i3L0F_zGx0VAiGbkec1p-11">
          <mxGeometry relative="1" as="geometry" />
        </mxCell>
        <mxCell id="i3L0F_zGx0VAiGbkec1p-9" value="Lancer partie" style="rounded=1;whiteSpace=wrap;html=1;" vertex="1" parent="1">
          <mxGeometry x="450" y="63" width="100" height="40" as="geometry" />
        </mxCell>
        <mxCell id="i3L0F_zGx0VAiGbkec1p-51" style="edgeStyle=orthogonalEdgeStyle;rounded=0;orthogonalLoop=1;jettySize=auto;html=1;" edge="1" parent="1" target="i3L0F_zGx0VAiGbkec1p-11">
          <mxGeometry relative="1" as="geometry">
            <mxPoint x="180" y="1000" as="sourcePoint" />
            <Array as="points">
              <mxPoint x="180" y="1010" />
              <mxPoint x="180" y="1050" />
              <mxPoint x="10" y="1050" />
              <mxPoint x="10" y="175" />
            </Array>
          </mxGeometry>
        </mxCell>
        <mxCell id="i3L0F_zGx0VAiGbkec1p-54" style="edgeStyle=orthogonalEdgeStyle;rounded=0;orthogonalLoop=1;jettySize=auto;html=1;entryX=0.5;entryY=0;entryDx=0;entryDy=0;" edge="1" parent="1" source="i3L0F_zGx0VAiGbkec1p-11" target="i3L0F_zGx0VAiGbkec1p-18">
          <mxGeometry relative="1" as="geometry" />
        </mxCell>
        <mxCell id="i3L0F_zGx0VAiGbkec1p-11" value="" style="rhombus;whiteSpace=wrap;html=1;" vertex="1" parent="1">
          <mxGeometry x="485" y="133" width="30" height="50" as="geometry" />
        </mxCell>
        <mxCell id="i3L0F_zGx0VAiGbkec1p-35" style="edgeStyle=orthogonalEdgeStyle;rounded=0;orthogonalLoop=1;jettySize=auto;html=1;entryX=0.5;entryY=0;entryDx=0;entryDy=0;" edge="1" parent="1" source="i3L0F_zGx0VAiGbkec1p-17" target="i3L0F_zGx0VAiGbkec1p-26">
          <mxGeometry relative="1" as="geometry" />
        </mxCell>
        <mxCell id="i3L0F_zGx0VAiGbkec1p-17" value="Vérifier l&#39;énergie &amp;gt;= 1%" style="rounded=1;whiteSpace=wrap;html=1;" vertex="1" parent="1">
          <mxGeometry x="125" y="400" width="100" height="40" as="geometry" />
        </mxCell>
        <mxCell id="i3L0F_zGx0VAiGbkec1p-55" style="edgeStyle=orthogonalEdgeStyle;rounded=0;orthogonalLoop=1;jettySize=auto;html=1;entryX=0.5;entryY=0;entryDx=0;entryDy=0;" edge="1" parent="1" source="i3L0F_zGx0VAiGbkec1p-18" target="i3L0F_zGx0VAiGbkec1p-52">
          <mxGeometry relative="1" as="geometry" />
        </mxCell>
        <mxCell id="i3L0F_zGx0VAiGbkec1p-18" value="Vérifiez si gelé" style="rounded=1;whiteSpace=wrap;html=1;" vertex="1" parent="1">
          <mxGeometry x="450" y="213" width="100" height="40" as="geometry" />
        </mxCell>
        <mxCell id="i3L0F_zGx0VAiGbkec1p-37" style="edgeStyle=orthogonalEdgeStyle;rounded=0;orthogonalLoop=1;jettySize=auto;html=1;" edge="1" parent="1" target="i3L0F_zGx0VAiGbkec1p-19">
          <mxGeometry relative="1" as="geometry">
            <mxPoint x="120" y="529.9999999999999" as="sourcePoint" />
            <Array as="points">
              <mxPoint x="130" y="530" />
              <mxPoint x="130" y="550" />
              <mxPoint x="75" y="550" />
            </Array>
          </mxGeometry>
        </mxCell>
        <mxCell id="i3L0F_zGx0VAiGbkec1p-43" style="edgeStyle=orthogonalEdgeStyle;rounded=0;orthogonalLoop=1;jettySize=auto;html=1;entryX=0.5;entryY=0;entryDx=0;entryDy=0;" edge="1" parent="1" source="i3L0F_zGx0VAiGbkec1p-19" target="i3L0F_zGx0VAiGbkec1p-21">
          <mxGeometry relative="1" as="geometry" />
        </mxCell>
        <mxCell id="i3L0F_zGx0VAiGbkec1p-19" value="Déplacer la roue" style="rounded=1;whiteSpace=wrap;html=1;" vertex="1" parent="1">
          <mxGeometry x="25" y="570" width="100" height="40" as="geometry" />
        </mxCell>
        <mxCell id="i3L0F_zGx0VAiGbkec1p-38" style="edgeStyle=orthogonalEdgeStyle;rounded=0;orthogonalLoop=1;jettySize=auto;html=1;" edge="1" parent="1" target="i3L0F_zGx0VAiGbkec1p-20">
          <mxGeometry relative="1" as="geometry">
            <mxPoint x="189.9999999999999" y="529.9999999999999" as="sourcePoint" />
            <Array as="points">
              <mxPoint x="180" y="530" />
            </Array>
          </mxGeometry>
        </mxCell>
        <mxCell id="i3L0F_zGx0VAiGbkec1p-49" style="edgeStyle=orthogonalEdgeStyle;rounded=0;orthogonalLoop=1;jettySize=auto;html=1;" edge="1" parent="1" source="i3L0F_zGx0VAiGbkec1p-20">
          <mxGeometry relative="1" as="geometry">
            <mxPoint x="180" y="1000.0000000000002" as="targetPoint" />
          </mxGeometry>
        </mxCell>
        <mxCell id="i3L0F_zGx0VAiGbkec1p-20" value="Émettre le son de la roue qui tourne" style="rounded=1;whiteSpace=wrap;html=1;" vertex="1" parent="1">
          <mxGeometry x="130" y="570" width="100" height="40" as="geometry" />
        </mxCell>
        <mxCell id="i3L0F_zGx0VAiGbkec1p-44" style="edgeStyle=orthogonalEdgeStyle;rounded=0;orthogonalLoop=1;jettySize=auto;html=1;entryX=0.5;entryY=0;entryDx=0;entryDy=0;" edge="1" parent="1" source="i3L0F_zGx0VAiGbkec1p-21" target="i3L0F_zGx0VAiGbkec1p-29">
          <mxGeometry relative="1" as="geometry" />
        </mxCell>
        <mxCell id="i3L0F_zGx0VAiGbkec1p-21" value="Verifier si collision avec une hyène" style="rounded=1;whiteSpace=wrap;html=1;" vertex="1" parent="1">
          <mxGeometry x="25" y="650" width="100" height="40" as="geometry" />
        </mxCell>
        <mxCell id="i3L0F_zGx0VAiGbkec1p-39" style="edgeStyle=orthogonalEdgeStyle;rounded=0;orthogonalLoop=1;jettySize=auto;html=1;" edge="1" parent="1" target="i3L0F_zGx0VAiGbkec1p-22">
          <mxGeometry relative="1" as="geometry">
            <mxPoint x="219.9999999999999" y="529.9999999999999" as="sourcePoint" />
            <Array as="points">
              <mxPoint x="230" y="530" />
              <mxPoint x="230" y="550" />
              <mxPoint x="290" y="550" />
            </Array>
          </mxGeometry>
        </mxCell>
        <mxCell id="i3L0F_zGx0VAiGbkec1p-50" style="edgeStyle=orthogonalEdgeStyle;rounded=0;orthogonalLoop=1;jettySize=auto;html=1;" edge="1" parent="1" source="i3L0F_zGx0VAiGbkec1p-22">
          <mxGeometry relative="1" as="geometry">
            <mxPoint x="230" y="1000.0000000000002" as="targetPoint" />
            <Array as="points">
              <mxPoint x="288" y="940" />
              <mxPoint x="230" y="940" />
            </Array>
          </mxGeometry>
        </mxCell>
        <mxCell id="i3L0F_zGx0VAiGbkec1p-22" value="Diminuer l&#39;énergie de 1 %" style="rounded=1;whiteSpace=wrap;html=1;" vertex="1" parent="1">
          <mxGeometry x="238" y="570" width="100" height="40" as="geometry" />
        </mxCell>
        <mxCell id="i3L0F_zGx0VAiGbkec1p-46" style="edgeStyle=orthogonalEdgeStyle;rounded=0;orthogonalLoop=1;jettySize=auto;html=1;entryX=0.5;entryY=0;entryDx=0;entryDy=0;" edge="1" parent="1" source="i3L0F_zGx0VAiGbkec1p-23" target="i3L0F_zGx0VAiGbkec1p-31">
          <mxGeometry relative="1" as="geometry" />
        </mxCell>
        <mxCell id="i3L0F_zGx0VAiGbkec1p-23" value="Augmenter le score joueur de 1" style="rounded=1;whiteSpace=wrap;html=1;" vertex="1" parent="1">
          <mxGeometry x="25" y="780" width="100" height="40" as="geometry" />
        </mxCell>
        <mxCell id="i3L0F_zGx0VAiGbkec1p-36" style="edgeStyle=orthogonalEdgeStyle;rounded=0;orthogonalLoop=1;jettySize=auto;html=1;" edge="1" parent="1" source="i3L0F_zGx0VAiGbkec1p-26">
          <mxGeometry relative="1" as="geometry">
            <mxPoint x="175" y="530" as="targetPoint" />
          </mxGeometry>
        </mxCell>
        <mxCell id="i3L0F_zGx0VAiGbkec1p-26" value="" style="rhombus;whiteSpace=wrap;html=1;" vertex="1" parent="1">
          <mxGeometry x="150" y="470" width="50" height="30" as="geometry" />
        </mxCell>
        <mxCell id="i3L0F_zGx0VAiGbkec1p-27" value="" style="endArrow=none;html=1;rounded=0;endSize=6;startSize=6;strokeWidth=3;" edge="1" parent="1">
          <mxGeometry width="50" height="50" relative="1" as="geometry">
            <mxPoint x="115" y="530" as="sourcePoint" />
            <mxPoint x="235" y="530" as="targetPoint" />
          </mxGeometry>
        </mxCell>
        <mxCell id="i3L0F_zGx0VAiGbkec1p-45" style="edgeStyle=orthogonalEdgeStyle;rounded=0;orthogonalLoop=1;jettySize=auto;html=1;entryX=0.5;entryY=0;entryDx=0;entryDy=0;" edge="1" parent="1" source="i3L0F_zGx0VAiGbkec1p-29" target="i3L0F_zGx0VAiGbkec1p-23">
          <mxGeometry relative="1" as="geometry" />
        </mxCell>
        <mxCell id="i3L0F_zGx0VAiGbkec1p-47" style="edgeStyle=orthogonalEdgeStyle;rounded=0;orthogonalLoop=1;jettySize=auto;html=1;entryX=1;entryY=0.5;entryDx=0;entryDy=0;" edge="1" parent="1" source="i3L0F_zGx0VAiGbkec1p-29" target="i3L0F_zGx0VAiGbkec1p-31">
          <mxGeometry relative="1" as="geometry">
            <Array as="points">
              <mxPoint x="150" y="735" />
              <mxPoint x="150" y="875" />
            </Array>
          </mxGeometry>
        </mxCell>
        <mxCell id="i3L0F_zGx0VAiGbkec1p-29" value="" style="rhombus;whiteSpace=wrap;html=1;" vertex="1" parent="1">
          <mxGeometry x="50" y="720" width="50" height="30" as="geometry" />
        </mxCell>
        <mxCell id="i3L0F_zGx0VAiGbkec1p-30" value="" style="endArrow=none;html=1;rounded=0;endSize=6;startSize=6;strokeWidth=3;" edge="1" parent="1">
          <mxGeometry width="50" height="50" relative="1" as="geometry">
            <mxPoint x="125" y="1000" as="sourcePoint" />
            <mxPoint x="245" y="1000" as="targetPoint" />
          </mxGeometry>
        </mxCell>
        <mxCell id="i3L0F_zGx0VAiGbkec1p-48" style="edgeStyle=orthogonalEdgeStyle;rounded=0;orthogonalLoop=1;jettySize=auto;html=1;" edge="1" parent="1" source="i3L0F_zGx0VAiGbkec1p-31">
          <mxGeometry relative="1" as="geometry">
            <mxPoint x="140" y="1000.0000000000002" as="targetPoint" />
            <Array as="points">
              <mxPoint x="75" y="940" />
              <mxPoint x="140" y="940" />
            </Array>
          </mxGeometry>
        </mxCell>
        <mxCell id="i3L0F_zGx0VAiGbkec1p-31" value="" style="rhombus;whiteSpace=wrap;html=1;" vertex="1" parent="1">
          <mxGeometry x="60" y="850" width="30" height="50" as="geometry" />
        </mxCell>
        <mxCell id="i3L0F_zGx0VAiGbkec1p-74" style="edgeStyle=orthogonalEdgeStyle;rounded=0;orthogonalLoop=1;jettySize=auto;html=1;entryX=0.5;entryY=0;entryDx=0;entryDy=0;" edge="1" parent="1" source="i3L0F_zGx0VAiGbkec1p-52" target="i3L0F_zGx0VAiGbkec1p-56">
          <mxGeometry relative="1" as="geometry" />
        </mxCell>
        <mxCell id="i3L0F_zGx0VAiGbkec1p-94" style="edgeStyle=orthogonalEdgeStyle;rounded=0;orthogonalLoop=1;jettySize=auto;html=1;entryX=0;entryY=0.5;entryDx=0;entryDy=0;" edge="1" parent="1" source="i3L0F_zGx0VAiGbkec1p-52" target="i3L0F_zGx0VAiGbkec1p-11">
          <mxGeometry relative="1" as="geometry">
            <Array as="points">
              <mxPoint x="430" y="288" />
              <mxPoint x="430" y="158" />
            </Array>
          </mxGeometry>
        </mxCell>
        <mxCell id="i3L0F_zGx0VAiGbkec1p-52" value="" style="rhombus;whiteSpace=wrap;html=1;" vertex="1" parent="1">
          <mxGeometry x="475" y="273" width="50" height="30" as="geometry" />
        </mxCell>
        <mxCell id="i3L0F_zGx0VAiGbkec1p-58" style="edgeStyle=orthogonalEdgeStyle;rounded=0;orthogonalLoop=1;jettySize=auto;html=1;entryX=0.5;entryY=0;entryDx=0;entryDy=0;" edge="1" parent="1" source="i3L0F_zGx0VAiGbkec1p-56" target="i3L0F_zGx0VAiGbkec1p-17">
          <mxGeometry relative="1" as="geometry" />
        </mxCell>
        <mxCell id="i3L0F_zGx0VAiGbkec1p-71" style="edgeStyle=orthogonalEdgeStyle;rounded=0;orthogonalLoop=1;jettySize=auto;html=1;entryX=0.5;entryY=0;entryDx=0;entryDy=0;" edge="1" parent="1" source="i3L0F_zGx0VAiGbkec1p-56" target="i3L0F_zGx0VAiGbkec1p-60">
          <mxGeometry relative="1" as="geometry" />
        </mxCell>
        <mxCell id="i3L0F_zGx0VAiGbkec1p-93" style="edgeStyle=orthogonalEdgeStyle;rounded=0;orthogonalLoop=1;jettySize=auto;html=1;entryX=0.5;entryY=0;entryDx=0;entryDy=0;" edge="1" parent="1" source="i3L0F_zGx0VAiGbkec1p-56" target="i3L0F_zGx0VAiGbkec1p-79">
          <mxGeometry relative="1" as="geometry" />
        </mxCell>
        <mxCell id="i3L0F_zGx0VAiGbkec1p-56" value="" style="rhombus;whiteSpace=wrap;html=1;" vertex="1" parent="1">
          <mxGeometry x="475" y="330" width="50" height="30" as="geometry" />
        </mxCell>
        <mxCell id="i3L0F_zGx0VAiGbkec1p-59" style="edgeStyle=orthogonalEdgeStyle;rounded=0;orthogonalLoop=1;jettySize=auto;html=1;entryX=0.5;entryY=0;entryDx=0;entryDy=0;" edge="1" parent="1" source="i3L0F_zGx0VAiGbkec1p-60" target="i3L0F_zGx0VAiGbkec1p-68">
          <mxGeometry relative="1" as="geometry" />
        </mxCell>
        <mxCell id="i3L0F_zGx0VAiGbkec1p-60" value="Vérifier l&#39;énergie &amp;gt;= 2/3" style="rounded=1;whiteSpace=wrap;html=1;" vertex="1" parent="1">
          <mxGeometry x="450" y="400" width="100" height="40" as="geometry" />
        </mxCell>
        <mxCell id="i3L0F_zGx0VAiGbkec1p-61" style="edgeStyle=orthogonalEdgeStyle;rounded=0;orthogonalLoop=1;jettySize=auto;html=1;" edge="1" parent="1" target="i3L0F_zGx0VAiGbkec1p-62">
          <mxGeometry relative="1" as="geometry">
            <mxPoint x="445" y="529.9999999999999" as="sourcePoint" />
            <Array as="points">
              <mxPoint x="455" y="530" />
              <mxPoint x="455" y="550" />
              <mxPoint x="400" y="550" />
            </Array>
          </mxGeometry>
        </mxCell>
        <mxCell id="i3L0F_zGx0VAiGbkec1p-75" style="edgeStyle=orthogonalEdgeStyle;rounded=0;orthogonalLoop=1;jettySize=auto;html=1;" edge="1" parent="1" source="i3L0F_zGx0VAiGbkec1p-62">
          <mxGeometry relative="1" as="geometry">
            <mxPoint x="450" y="660" as="targetPoint" />
          </mxGeometry>
        </mxCell>
        <mxCell id="i3L0F_zGx0VAiGbkec1p-62" value="Booster la roue" style="rounded=1;whiteSpace=wrap;html=1;" vertex="1" parent="1">
          <mxGeometry x="350" y="570" width="100" height="40" as="geometry" />
        </mxCell>
        <mxCell id="i3L0F_zGx0VAiGbkec1p-63" style="edgeStyle=orthogonalEdgeStyle;rounded=0;orthogonalLoop=1;jettySize=auto;html=1;" edge="1" parent="1" target="i3L0F_zGx0VAiGbkec1p-64">
          <mxGeometry relative="1" as="geometry">
            <mxPoint x="514.9999999999999" y="529.9999999999999" as="sourcePoint" />
            <Array as="points">
              <mxPoint x="505" y="530" />
            </Array>
          </mxGeometry>
        </mxCell>
        <mxCell id="i3L0F_zGx0VAiGbkec1p-76" style="edgeStyle=orthogonalEdgeStyle;rounded=0;orthogonalLoop=1;jettySize=auto;html=1;" edge="1" parent="1" source="i3L0F_zGx0VAiGbkec1p-64">
          <mxGeometry relative="1" as="geometry">
            <mxPoint x="505" y="660" as="targetPoint" />
          </mxGeometry>
        </mxCell>
        <mxCell id="i3L0F_zGx0VAiGbkec1p-64" value="Émettre le son de la roue boostée" style="rounded=1;whiteSpace=wrap;html=1;" vertex="1" parent="1">
          <mxGeometry x="455" y="570" width="100" height="40" as="geometry" />
        </mxCell>
        <mxCell id="i3L0F_zGx0VAiGbkec1p-65" style="edgeStyle=orthogonalEdgeStyle;rounded=0;orthogonalLoop=1;jettySize=auto;html=1;" edge="1" parent="1" target="i3L0F_zGx0VAiGbkec1p-66">
          <mxGeometry relative="1" as="geometry">
            <mxPoint x="544.9999999999999" y="529.9999999999999" as="sourcePoint" />
            <Array as="points">
              <mxPoint x="555" y="530" />
              <mxPoint x="555" y="550" />
              <mxPoint x="615" y="550" />
            </Array>
          </mxGeometry>
        </mxCell>
        <mxCell id="i3L0F_zGx0VAiGbkec1p-77" style="edgeStyle=orthogonalEdgeStyle;rounded=0;orthogonalLoop=1;jettySize=auto;html=1;" edge="1" parent="1" source="i3L0F_zGx0VAiGbkec1p-66">
          <mxGeometry relative="1" as="geometry">
            <mxPoint x="530" y="660" as="targetPoint" />
            <Array as="points">
              <mxPoint x="613" y="640" />
              <mxPoint x="530" y="640" />
            </Array>
          </mxGeometry>
        </mxCell>
        <mxCell id="i3L0F_zGx0VAiGbkec1p-66" value="Diminuer l&#39;énergie de 2/3" style="rounded=1;whiteSpace=wrap;html=1;" vertex="1" parent="1">
          <mxGeometry x="563" y="570" width="100" height="40" as="geometry" />
        </mxCell>
        <mxCell id="i3L0F_zGx0VAiGbkec1p-67" style="edgeStyle=orthogonalEdgeStyle;rounded=0;orthogonalLoop=1;jettySize=auto;html=1;" edge="1" parent="1" source="i3L0F_zGx0VAiGbkec1p-68">
          <mxGeometry relative="1" as="geometry">
            <mxPoint x="500" y="530" as="targetPoint" />
          </mxGeometry>
        </mxCell>
        <mxCell id="i3L0F_zGx0VAiGbkec1p-68" value="" style="rhombus;whiteSpace=wrap;html=1;" vertex="1" parent="1">
          <mxGeometry x="475" y="470" width="50" height="30" as="geometry" />
        </mxCell>
        <mxCell id="i3L0F_zGx0VAiGbkec1p-69" value="" style="endArrow=none;html=1;rounded=0;endSize=6;startSize=6;strokeWidth=3;" edge="1" parent="1">
          <mxGeometry width="50" height="50" relative="1" as="geometry">
            <mxPoint x="440" y="530" as="sourcePoint" />
            <mxPoint x="560" y="530" as="targetPoint" />
          </mxGeometry>
        </mxCell>
        <mxCell id="i3L0F_zGx0VAiGbkec1p-70" value="" style="endArrow=none;html=1;rounded=0;endSize=6;startSize=6;strokeWidth=3;" edge="1" parent="1">
          <mxGeometry width="50" height="50" relative="1" as="geometry">
            <mxPoint x="435" y="660" as="sourcePoint" />
            <mxPoint x="555" y="660" as="targetPoint" />
          </mxGeometry>
        </mxCell>
        <mxCell id="i3L0F_zGx0VAiGbkec1p-78" style="edgeStyle=orthogonalEdgeStyle;rounded=0;orthogonalLoop=1;jettySize=auto;html=1;entryX=0.5;entryY=0;entryDx=0;entryDy=0;" edge="1" parent="1" source="i3L0F_zGx0VAiGbkec1p-79" target="i3L0F_zGx0VAiGbkec1p-90">
          <mxGeometry relative="1" as="geometry" />
        </mxCell>
        <mxCell id="i3L0F_zGx0VAiGbkec1p-79" value="Vérifier l&#39;énergie &amp;gt;= 2/3" style="rounded=1;whiteSpace=wrap;html=1;" vertex="1" parent="1">
          <mxGeometry x="780" y="400" width="100" height="40" as="geometry" />
        </mxCell>
        <mxCell id="i3L0F_zGx0VAiGbkec1p-80" style="edgeStyle=orthogonalEdgeStyle;rounded=0;orthogonalLoop=1;jettySize=auto;html=1;" edge="1" parent="1" target="i3L0F_zGx0VAiGbkec1p-82">
          <mxGeometry relative="1" as="geometry">
            <mxPoint x="775" y="529.9999999999999" as="sourcePoint" />
            <Array as="points">
              <mxPoint x="785" y="530" />
              <mxPoint x="785" y="550" />
              <mxPoint x="730" y="550" />
            </Array>
          </mxGeometry>
        </mxCell>
        <mxCell id="i3L0F_zGx0VAiGbkec1p-81" style="edgeStyle=orthogonalEdgeStyle;rounded=0;orthogonalLoop=1;jettySize=auto;html=1;" edge="1" parent="1" source="i3L0F_zGx0VAiGbkec1p-82">
          <mxGeometry relative="1" as="geometry">
            <mxPoint x="780" y="660" as="targetPoint" />
          </mxGeometry>
        </mxCell>
        <mxCell id="i3L0F_zGx0VAiGbkec1p-82" value="Geler l&#39;autre joueur" style="rounded=1;whiteSpace=wrap;html=1;" vertex="1" parent="1">
          <mxGeometry x="680" y="570" width="100" height="40" as="geometry" />
        </mxCell>
        <mxCell id="i3L0F_zGx0VAiGbkec1p-83" style="edgeStyle=orthogonalEdgeStyle;rounded=0;orthogonalLoop=1;jettySize=auto;html=1;" edge="1" parent="1" target="i3L0F_zGx0VAiGbkec1p-85">
          <mxGeometry relative="1" as="geometry">
            <mxPoint x="844.9999999999999" y="529.9999999999999" as="sourcePoint" />
            <Array as="points">
              <mxPoint x="835" y="530" />
            </Array>
          </mxGeometry>
        </mxCell>
        <mxCell id="i3L0F_zGx0VAiGbkec1p-84" style="edgeStyle=orthogonalEdgeStyle;rounded=0;orthogonalLoop=1;jettySize=auto;html=1;" edge="1" parent="1" source="i3L0F_zGx0VAiGbkec1p-85">
          <mxGeometry relative="1" as="geometry">
            <mxPoint x="835" y="660" as="targetPoint" />
          </mxGeometry>
        </mxCell>
        <mxCell id="i3L0F_zGx0VAiGbkec1p-85" value="Émettre le son du joueur gelé" style="rounded=1;whiteSpace=wrap;html=1;" vertex="1" parent="1">
          <mxGeometry x="785" y="570" width="100" height="40" as="geometry" />
        </mxCell>
        <mxCell id="i3L0F_zGx0VAiGbkec1p-86" style="edgeStyle=orthogonalEdgeStyle;rounded=0;orthogonalLoop=1;jettySize=auto;html=1;" edge="1" parent="1" target="i3L0F_zGx0VAiGbkec1p-88">
          <mxGeometry relative="1" as="geometry">
            <mxPoint x="874.9999999999999" y="529.9999999999999" as="sourcePoint" />
            <Array as="points">
              <mxPoint x="885" y="530" />
              <mxPoint x="885" y="550" />
              <mxPoint x="945" y="550" />
            </Array>
          </mxGeometry>
        </mxCell>
        <mxCell id="i3L0F_zGx0VAiGbkec1p-87" style="edgeStyle=orthogonalEdgeStyle;rounded=0;orthogonalLoop=1;jettySize=auto;html=1;" edge="1" parent="1" source="i3L0F_zGx0VAiGbkec1p-88">
          <mxGeometry relative="1" as="geometry">
            <mxPoint x="860" y="660" as="targetPoint" />
            <Array as="points">
              <mxPoint x="943" y="640" />
              <mxPoint x="860" y="640" />
            </Array>
          </mxGeometry>
        </mxCell>
        <mxCell id="i3L0F_zGx0VAiGbkec1p-88" value="Diminuer l&#39;énergie de 2/3" style="rounded=1;whiteSpace=wrap;html=1;" vertex="1" parent="1">
          <mxGeometry x="893" y="570" width="100" height="40" as="geometry" />
        </mxCell>
        <mxCell id="i3L0F_zGx0VAiGbkec1p-89" style="edgeStyle=orthogonalEdgeStyle;rounded=0;orthogonalLoop=1;jettySize=auto;html=1;" edge="1" parent="1" source="i3L0F_zGx0VAiGbkec1p-90">
          <mxGeometry relative="1" as="geometry">
            <mxPoint x="830" y="530" as="targetPoint" />
          </mxGeometry>
        </mxCell>
        <mxCell id="i3L0F_zGx0VAiGbkec1p-90" value="" style="rhombus;whiteSpace=wrap;html=1;" vertex="1" parent="1">
          <mxGeometry x="805" y="470" width="50" height="30" as="geometry" />
        </mxCell>
        <mxCell id="i3L0F_zGx0VAiGbkec1p-91" value="" style="endArrow=none;html=1;rounded=0;endSize=6;startSize=6;strokeWidth=3;" edge="1" parent="1">
          <mxGeometry width="50" height="50" relative="1" as="geometry">
            <mxPoint x="770" y="530" as="sourcePoint" />
            <mxPoint x="890" y="530" as="targetPoint" />
          </mxGeometry>
        </mxCell>
        <mxCell id="i3L0F_zGx0VAiGbkec1p-92" value="" style="endArrow=none;html=1;rounded=0;endSize=6;startSize=6;strokeWidth=3;" edge="1" parent="1">
          <mxGeometry width="50" height="50" relative="1" as="geometry">
            <mxPoint x="765" y="660" as="sourcePoint" />
            <mxPoint x="885" y="660" as="targetPoint" />
          </mxGeometry>
        </mxCell>
        <mxCell id="i3L0F_zGx0VAiGbkec1p-95" style="edgeStyle=orthogonalEdgeStyle;rounded=0;orthogonalLoop=1;jettySize=auto;html=1;entryX=0.5;entryY=0;entryDx=0;entryDy=0;" edge="1" parent="1" source="i3L0F_zGx0VAiGbkec1p-96" target="i3L0F_zGx0VAiGbkec1p-101">
          <mxGeometry relative="1" as="geometry" />
        </mxCell>
        <mxCell id="i3L0F_zGx0VAiGbkec1p-96" value="Verifier si collision avec une hyène" style="rounded=1;whiteSpace=wrap;html=1;" vertex="1" parent="1">
          <mxGeometry x="975" y="410" width="100" height="40" as="geometry" />
        </mxCell>
        <mxCell id="i3L0F_zGx0VAiGbkec1p-97" style="edgeStyle=orthogonalEdgeStyle;rounded=0;orthogonalLoop=1;jettySize=auto;html=1;entryX=0.5;entryY=0;entryDx=0;entryDy=0;" edge="1" parent="1" source="i3L0F_zGx0VAiGbkec1p-98" target="i3L0F_zGx0VAiGbkec1p-102">
          <mxGeometry relative="1" as="geometry" />
        </mxCell>
        <mxCell id="i3L0F_zGx0VAiGbkec1p-98" value="Augmenter le score joueur de 1" style="rounded=1;whiteSpace=wrap;html=1;" vertex="1" parent="1">
          <mxGeometry x="975" y="540" width="100" height="40" as="geometry" />
        </mxCell>
        <mxCell id="i3L0F_zGx0VAiGbkec1p-99" style="edgeStyle=orthogonalEdgeStyle;rounded=0;orthogonalLoop=1;jettySize=auto;html=1;entryX=0.5;entryY=0;entryDx=0;entryDy=0;" edge="1" parent="1" source="i3L0F_zGx0VAiGbkec1p-101" target="i3L0F_zGx0VAiGbkec1p-98">
          <mxGeometry relative="1" as="geometry" />
        </mxCell>
        <mxCell id="i3L0F_zGx0VAiGbkec1p-100" style="edgeStyle=orthogonalEdgeStyle;rounded=0;orthogonalLoop=1;jettySize=auto;html=1;entryX=1;entryY=0.5;entryDx=0;entryDy=0;" edge="1" parent="1" source="i3L0F_zGx0VAiGbkec1p-101" target="i3L0F_zGx0VAiGbkec1p-102">
          <mxGeometry relative="1" as="geometry">
            <Array as="points">
              <mxPoint x="1100" y="495" />
              <mxPoint x="1100" y="635" />
            </Array>
          </mxGeometry>
        </mxCell>
        <mxCell id="i3L0F_zGx0VAiGbkec1p-101" value="" style="rhombus;whiteSpace=wrap;html=1;" vertex="1" parent="1">
          <mxGeometry x="1000" y="480" width="50" height="30" as="geometry" />
        </mxCell>
        <mxCell id="i3L0F_zGx0VAiGbkec1p-102" value="" style="rhombus;whiteSpace=wrap;html=1;" vertex="1" parent="1">
          <mxGeometry x="1010" y="610" width="30" height="50" as="geometry" />
        </mxCell>
      </root>
    </mxGraphModel>
  </diagram>
</mxfile>
